<svg width="28" height="24" viewBox="0 0 28 24" fill="none" xmlns="http://www.w3.org/2000/svg">
<path d="M18.6667 4.66667C18.6667 5.90434 18.175 7.09133 17.2998 7.9665C16.4247 8.84167 15.2377 9.33333 14 9.33333C12.7623 9.33333 11.5753 8.84167 10.7002 7.9665C9.82501 7.09133 9.33334 5.90434 9.33334 4.66667C9.33334 3.42899 9.82501 2.242 10.7002 1.36684C11.5753 0.491665 12.7623 0 14 0C15.2377 0 16.4247 0.491665 17.2998 1.36684C18.175 2.242 18.6667 3.42899 18.6667 4.66667V4.66667Z" fill="white"/>
<path d="M26.4445 7.77777C26.4445 8.60289 26.1167 9.39421 25.5332 9.97765C24.9498 10.5611 24.1585 10.8889 23.3333 10.8889C22.5082 10.8889 21.7169 10.5611 21.1335 9.97765C20.55 9.39421 20.2222 8.60289 20.2222 7.77777C20.2222 6.95265 20.55 6.16133 21.1335 5.57788C21.7169 4.99443 22.5082 4.66666 23.3333 4.66666C24.1585 4.66666 24.9498 4.99443 25.5332 5.57788C26.1167 6.16133 26.4445 6.95265 26.4445 7.77777V7.77777Z" fill="white"/>
<path d="M7.77776 7.77777C7.77776 8.60289 7.44999 9.39421 6.86654 9.97765C6.28309 10.5611 5.49177 10.8889 4.66665 10.8889C3.84154 10.8889 3.05021 10.5611 2.46677 9.97765C1.88332 9.39421 1.55554 8.60289 1.55554 7.77777C1.55554 6.95265 1.88332 6.16133 2.46677 5.57788C3.05021 4.99443 3.84154 4.66666 4.66665 4.66666C5.49177 4.66666 6.28309 4.99443 6.86654 5.57788C7.44999 6.16133 7.77776 6.95265 7.77776 7.77777V7.77777Z" fill="white"/>
<path d="M23.3333 23.3333V18.6667C23.3356 17.0851 22.934 15.5291 22.1667 14.1462C22.8563 13.9697 23.5772 13.9531 24.2742 14.0976C24.9713 14.242 25.6261 14.5438 26.1888 14.9798C26.7515 15.4159 27.2072 15.9747 27.5211 16.6137C27.835 17.2526 27.9988 17.9548 28 18.6667V23.3333H23.3333Z" fill="white"/>
<path d="M5.83333 14.1462C5.06605 15.5292 4.66449 17.0851 4.66667 18.6667V23.3333H4.13342e-07V18.6667C-0.000299395 17.9543 0.162499 17.2513 0.475918 16.6116C0.789337 15.9718 1.24506 15.4124 1.80815 14.976C2.37125 14.5396 3.02677 14.238 3.72448 14.0941C4.42219 13.9503 5.14357 13.9681 5.83333 14.1462V14.1462Z" fill="white"/>
<rect x="7.77777" y="12.4445" width="12.4444" height="10.8889" rx="3" fill="white"/>
</svg>
