<svg width="61" height="61" viewBox="0 0 61 61" fill="none" xmlns="http://www.w3.org/2000/svg">
<path d="M34.045 51H26.765C26.3089 51.0001 25.8664 50.8442 25.511 50.5583C25.1556 50.2724 24.9087 49.8736 24.811 49.428L23.997 45.66C22.9112 45.1842 21.8815 44.5892 20.927 43.886L17.253 45.056C16.8182 45.1947 16.3489 45.1804 15.9233 45.0156C15.4976 44.8508 15.1411 44.5454 14.913 44.15L11.265 37.848C11.0393 37.4523 10.9546 36.9916 11.0247 36.5415C11.0948 36.0914 11.3157 35.6783 11.651 35.37L14.501 32.77C14.3714 31.5922 14.3714 30.4038 14.501 29.226L11.651 26.632C11.3152 26.3235 11.0941 25.9101 11.0239 25.4596C10.9538 25.009 11.0388 24.5479 11.265 24.152L14.905 17.846C15.1331 17.4506 15.4896 17.1452 15.9153 16.9804C16.3409 16.8156 16.8102 16.8013 17.245 16.94L20.919 18.11C21.407 17.75 21.915 17.414 22.439 17.11C22.945 16.826 23.465 16.568 23.997 16.338L24.813 12.574C24.9102 12.1284 25.1567 11.7294 25.5117 11.4431C25.8668 11.1568 26.309 11.0005 26.765 11H34.045C34.5011 11.0005 34.9433 11.1568 35.2983 11.4431C35.6534 11.7294 35.8999 12.1284 35.997 12.574L36.821 16.34C37.381 16.588 37.929 16.866 38.459 17.176C38.953 17.462 39.431 17.776 39.891 18.114L43.567 16.944C44.0016 16.8058 44.4704 16.8203 44.8956 16.9851C45.3209 17.1499 45.677 17.4551 45.905 17.85L49.545 24.156C50.009 24.97 49.849 26 49.159 26.634L46.309 29.234C46.4386 30.4118 46.4386 31.6002 46.309 32.778L49.159 35.378C49.849 36.014 50.009 37.042 49.545 37.856L45.905 44.162C45.6769 44.5574 45.3205 44.8628 44.8948 45.0276C44.4691 45.1924 43.9999 45.2067 43.565 45.068L39.891 43.898C38.9373 44.6007 37.9083 45.195 36.823 45.67L35.997 49.428C35.8995 49.8732 35.6528 50.2718 35.2978 50.5577C34.9428 50.8436 34.5008 50.9996 34.045 51V51ZM30.397 23C28.2753 23 26.2405 23.8429 24.7402 25.3431C23.2399 26.8434 22.397 28.8783 22.397 31C22.397 33.1217 23.2399 35.1566 24.7402 36.6569C26.2405 38.1571 28.2753 39 30.397 39C32.5188 39 34.5536 38.1571 36.0539 36.6569C37.5542 35.1566 38.397 33.1217 38.397 31C38.397 28.8783 37.5542 26.8434 36.0539 25.3431C34.5536 23.8429 32.5188 23 30.397 23V23Z" fill="#B2B2B2"/>
</svg>
