<svg width="61" height="61" viewBox="0 0 61 61" fill="none" xmlns="http://www.w3.org/2000/svg">
<path d="M31.247 45.7255H23.967C23.5109 45.7255 23.0684 45.5697 22.713 45.2838C22.3576 44.9979 22.1106 44.599 22.013 44.1535L21.199 40.3855C20.1131 39.9097 19.0835 39.3147 18.129 38.6115L14.455 39.7815C14.0201 39.9201 13.5509 39.9059 13.1252 39.7411C12.6996 39.5763 12.3431 39.2708 12.115 38.8755L8.46701 32.5735C8.2413 32.1777 8.15657 31.7171 8.22669 31.267C8.29681 30.8168 8.51763 30.4038 8.85301 30.0955L11.703 27.4955C11.5734 26.3177 11.5734 25.1292 11.703 23.9515L8.85301 21.3575C8.51715 21.049 8.29604 20.6356 8.22591 20.185C8.15577 19.7344 8.24079 19.2734 8.46701 18.8775L12.107 12.5715C12.3351 12.1761 12.6916 11.8706 13.1172 11.7058C13.5429 11.541 14.0121 11.5268 14.447 11.6655L18.121 12.8355C18.609 12.4755 19.117 12.1395 19.641 11.8355C20.147 11.5515 20.667 11.2935 21.199 11.0635L22.015 7.29946C22.1122 6.85386 22.3587 6.45484 22.7137 6.16856C23.0687 5.88228 23.5109 5.72594 23.967 5.72546H31.247C31.7031 5.72594 32.1453 5.88228 32.5003 6.16856C32.8553 6.45484 33.1019 6.85386 33.199 7.29946L34.023 11.0655C34.583 11.3135 35.131 11.5915 35.661 11.9015C36.155 12.1875 36.633 12.5015 37.093 12.8395L40.769 11.6695C41.2036 11.5313 41.6724 11.5458 42.0976 11.7106C42.5228 11.8754 42.879 12.1805 43.107 12.5755L46.747 18.8815C47.211 19.6955 47.051 20.7255 46.361 21.3595L43.511 23.9595C43.6406 25.1372 43.6406 26.3257 43.511 27.5035L46.361 30.1035C47.051 30.7395 47.211 31.7675 46.747 32.5815L43.107 38.8875C42.8789 39.2828 42.5224 39.5883 42.0968 39.7531C41.6711 39.9179 41.2019 39.9321 40.767 39.7935L37.093 38.6235C36.1393 39.3262 35.1103 39.9205 34.025 40.3955L33.199 44.1535C33.1015 44.5987 32.8548 44.9973 32.4998 45.2831C32.1448 45.569 31.7028 45.7251 31.247 45.7255V45.7255ZM27.599 17.7255C25.4773 17.7255 23.4424 18.5683 21.9422 20.0686C20.4419 21.5689 19.599 23.6037 19.599 25.7255C19.599 27.8472 20.4419 29.882 21.9422 31.3823C23.4424 32.8826 25.4773 33.7255 27.599 33.7255C29.7207 33.7255 31.7556 32.8826 33.2559 31.3823C34.7562 29.882 35.599 27.8472 35.599 25.7255C35.599 23.6037 34.7562 21.5689 33.2559 20.0686C31.7556 18.5683 29.7207 17.7255 27.599 17.7255V17.7255Z" fill="#B2B2B2"/>
</svg>
