<svg width="22" height="21" viewBox="0 0 22 21" fill="none" xmlns="http://www.w3.org/2000/svg">
<g clip-path="url(#clip0_1_344)">
<path d="M10.8389 5.65191C14.1282 5.65191 17.0617 7.50051 18.4937 10.4253C17.0617 13.3501 14.1369 15.1987 10.8389 15.1987C7.54094 15.1987 4.61616 13.3501 3.18415 10.4253C4.61616 7.50051 7.54962 5.65191 10.8389 5.65191ZM10.8389 3.91614C6.49948 3.91614 2.7936 6.61526 1.29216 10.4253C2.7936 14.2353 6.49948 16.9344 10.8389 16.9344C15.1783 16.9344 18.8842 14.2353 20.3857 10.4253C18.8842 6.61526 15.1783 3.91614 10.8389 3.91614ZM10.8389 8.25557C12.0366 8.25557 13.0086 9.2276 13.0086 10.4253C13.0086 11.623 12.0366 12.595 10.8389 12.595C9.64122 12.595 8.66919 11.623 8.66919 10.4253C8.66919 9.2276 9.64122 8.25557 10.8389 8.25557ZM10.8389 6.5198C8.68655 6.5198 6.93342 8.27293 6.93342 10.4253C6.93342 12.5776 8.68655 14.3308 10.8389 14.3308C12.9913 14.3308 14.7444 12.5776 14.7444 10.4253C14.7444 8.27293 12.9913 6.5198 10.8389 6.5198Z" fill="#94B8D1"/>
</g>
<defs>
<clipPath id="clip0_1_344">
<rect width="20.8293" height="20.8293" fill="white" transform="translate(0.424286 0.0106201)"/>
</clipPath>
</defs>
</svg>
