<svg width="427" height="171" viewBox="0 0 427 171" fill="none" xmlns="http://www.w3.org/2000/svg">
<path fill-rule="evenodd" clip-rule="evenodd" d="M10 0C4.47715 0 0 4.47716 0 10V161C0 166.523 4.47715 171 10 171H417C422.523 171 427 166.523 427 161V10C427 4.47715 422.523 0 417 0H10ZM100.558 53.2513C93.9123 46.6875 84.8986 43 75.5 43C66.1014 43 57.0877 46.6875 50.4419 53.2513C43.7961 59.815 40.0625 68.7174 40.0625 78C40.0625 87.2826 43.7961 96.185 50.4419 102.749C57.0877 109.313 66.1014 113 75.5 113C84.8986 113 93.9123 109.313 100.558 102.749C107.204 96.185 110.938 87.2826 110.938 78C110.938 68.7174 107.204 59.815 100.558 53.2513ZM57.6014 60.3223C62.3484 55.6339 68.7867 53 75.5 53C82.2133 53 88.6516 55.6339 93.3986 60.3223C98.1457 65.0107 100.812 71.3696 100.812 78C100.812 81.2831 100.158 84.5339 98.8857 87.5671C97.6136 90.6002 95.7491 93.3562 93.3986 95.6777C91.0482 97.9991 88.2577 99.8406 85.1867 101.097C82.1156 102.353 78.8241 103 75.5 103C68.7867 103 62.3484 100.366 57.6014 95.6777C52.8543 90.9893 50.1875 84.6304 50.1875 78C50.1875 71.3696 52.8543 65.0107 57.6014 60.3223ZM86.2392 67.3934C83.391 64.5804 79.528 63 75.5 63C71.472 63 67.609 64.5804 64.7608 67.3934C61.9126 70.2064 60.3125 74.0218 60.3125 78C60.3125 81.9782 61.9126 85.7936 64.7608 88.6066C67.609 91.4196 71.472 93 75.5 93C79.528 93 83.391 91.4196 86.2392 88.6066C89.0874 85.7936 90.6875 81.9782 90.6875 78C90.6875 74.0218 89.0874 70.2064 86.2392 67.3934ZM37.9655 140.071C39.8643 141.946 42.4397 143 45.125 143H105.875C108.56 143 111.136 141.946 113.034 140.071C114.933 138.196 116 135.652 116 133C116 131.1 115.494 129.35 114.532 127.85L105.318 112.05C97.3194 118.85 86.8906 123 75.5 123C64.1094 123 53.6806 118.85 45.6819 112.05L36.4681 127.85C35.5062 129.35 35 131.1 35 133C35 135.652 36.0667 138.196 37.9655 140.071Z" fill="#1F86FF"/>
</svg>
