<svg width="33" height="41" viewBox="0 0 33 41" fill="none" xmlns="http://www.w3.org/2000/svg">
<path d="M16.904 0.0463867C20.617 0.0463867 24.178 1.52138 26.8035 4.14689C29.429 6.7724 30.904 10.3334 30.904 14.0464C30.904 17.7594 29.429 21.3204 26.8035 23.9459C24.178 26.5714 20.617 28.0464 16.904 28.0464C13.191 28.0464 9.63001 26.5714 7.0045 23.9459C4.37899 21.3204 2.90399 17.7594 2.90399 14.0464C2.90399 10.3334 4.37899 6.7724 7.0045 4.14689C9.63001 1.52138 13.191 0.0463867 16.904 0.0463867ZM16.904 4.04639C14.2518 4.04639 11.7083 5.09996 9.83292 6.97532C7.95756 8.85068 6.90399 11.3942 6.90399 14.0464C6.90399 16.6986 7.95756 19.2421 9.83292 21.1175C11.7083 22.9928 14.2518 24.0464 16.904 24.0464C18.2172 24.0464 19.5176 23.7877 20.7308 23.2852C21.9441 22.7826 23.0465 22.046 23.9751 21.1175C24.9036 20.1889 25.6402 19.0865 26.1428 17.8732C26.6453 16.66 26.904 15.3596 26.904 14.0464C26.904 11.3942 25.8504 8.85068 23.9751 6.97532C22.0997 5.09996 19.5562 4.04639 16.904 4.04639ZM16.904 8.04639C18.4953 8.04639 20.0214 8.67853 21.1466 9.80375C22.2719 10.929 22.904 12.4551 22.904 14.0464C22.904 15.6377 22.2719 17.1638 21.1466 18.289C20.0214 19.4142 18.4953 20.0464 16.904 20.0464C15.3127 20.0464 13.7866 19.4142 12.6614 18.289C11.5361 17.1638 10.904 15.6377 10.904 14.0464C10.904 12.4551 11.5361 10.929 12.6614 9.80375C13.7866 8.67853 15.3127 8.04639 16.904 8.04639ZM4.90399 40.0464C3.84313 40.0464 2.82571 39.625 2.07556 38.8748C1.32542 38.1247 0.903992 37.1073 0.903992 36.0464C0.903992 35.2864 1.10399 34.5864 1.48399 33.9864L5.12399 27.6664C8.28399 30.3864 12.404 32.0464 16.904 32.0464C21.404 32.0464 25.524 30.3864 28.684 27.6664L32.324 33.9864C32.704 34.5864 32.904 35.2864 32.904 36.0464C32.904 37.1073 32.4826 38.1247 31.7324 38.8748C30.9823 39.625 29.9649 40.0464 28.904 40.0464H4.90399Z" fill="#1F86FF"/>
</svg>
