<svg width="20" height="26" viewBox="0 0 20 26" fill="none" xmlns="http://www.w3.org/2000/svg">
<path d="M9.99988 0.499996C12.3205 0.499996 14.5461 1.42187 16.1871 3.06281C17.828 4.70376 18.7499 6.92935 18.7499 9.25C18.7499 11.5706 17.828 13.7962 16.1871 15.4372C14.5461 17.0781 12.3205 18 9.99988 18C7.67923 18 5.45364 17.0781 3.81269 15.4372C2.17175 13.7962 1.24988 11.5706 1.24988 9.25C1.24988 6.92935 2.17175 4.70376 3.81269 3.06281C5.45364 1.42187 7.67923 0.499996 9.99988 0.499996ZM9.99988 3C8.34227 3 6.75256 3.65848 5.58046 4.83058C4.40836 6.00268 3.74988 7.59239 3.74988 9.25C3.74988 10.9076 4.40836 12.4973 5.58046 13.6694C6.75256 14.8415 8.34227 15.5 9.99988 15.5C10.8206 15.5 11.6334 15.3383 12.3916 15.0242C13.1499 14.7102 13.8389 14.2498 14.4193 13.6694C14.9997 13.089 15.46 12.4001 15.7741 11.6418C16.0882 10.8835 16.2499 10.0708 16.2499 9.25C16.2499 7.59239 15.5914 6.00268 14.4193 4.83058C13.2472 3.65848 11.6575 3 9.99988 3ZM9.99988 5.5C10.9944 5.5 11.9483 5.89508 12.6515 6.59835C13.3548 7.30161 13.7499 8.25543 13.7499 9.25C13.7499 10.2446 13.3548 11.1984 12.6515 11.9016C11.9483 12.6049 10.9944 13 9.99988 13C9.00532 13 8.05149 12.6049 7.34823 11.9016C6.64497 11.1984 6.24988 10.2446 6.24988 9.25C6.24988 8.25543 6.64497 7.30161 7.34823 6.59835C8.05149 5.89508 9.00532 5.5 9.99988 5.5ZM2.49988 25.5C1.83684 25.5 1.20095 25.2366 0.732111 24.7678C0.26327 24.2989 -0.00012207 23.663 -0.00012207 23C-0.00012207 22.525 0.124878 22.0875 0.362378 21.7125L2.63738 17.7625C4.61238 19.4625 7.18738 20.5 9.99988 20.5C12.8124 20.5 15.3874 19.4625 17.3624 17.7625L19.6374 21.7125C19.8749 22.0875 19.9999 22.525 19.9999 23C19.9999 23.663 19.7365 24.2989 19.2676 24.7678C18.7988 25.2366 18.1629 25.5 17.4999 25.5H2.49988Z" fill="white"/>
</svg>
