<svg width="33" height="41" viewBox="0 0 33 41" fill="none" xmlns="http://www.w3.org/2000/svg">
<path d="M16.904 0.0464783C20.617 0.0464783 24.178 1.52147 26.8035 4.14698C29.429 6.77249 30.904 10.3334 30.904 14.0465C30.904 17.7595 29.429 21.3205 26.8035 23.946C24.178 26.5715 20.617 28.0465 16.904 28.0465C13.191 28.0465 9.63001 26.5715 7.0045 23.946C4.37899 21.3205 2.90399 17.7595 2.90399 14.0465C2.90399 10.3334 4.37899 6.77249 7.0045 4.14698C9.63001 1.52147 13.191 0.0464783 16.904 0.0464783ZM16.904 4.04648C14.2518 4.04648 11.7083 5.10005 9.83292 6.97541C7.95756 8.85077 6.90399 11.3943 6.90399 14.0465C6.90399 16.6986 7.95756 19.2422 9.83292 21.1175C11.7083 22.9929 14.2518 24.0465 16.904 24.0465C18.2172 24.0465 19.5176 23.7878 20.7308 23.2853C21.9441 22.7827 23.0465 22.0461 23.9751 21.1175C24.9036 20.189 25.6402 19.0866 26.1428 17.8733C26.6453 16.6601 26.904 15.3597 26.904 14.0465C26.904 11.3943 25.8504 8.85077 23.9751 6.97541C22.0997 5.10005 19.5562 4.04648 16.904 4.04648ZM16.904 8.04648C18.4953 8.04648 20.0214 8.67862 21.1466 9.80384C22.2719 10.9291 22.904 12.4552 22.904 14.0465C22.904 15.6378 22.2719 17.1639 21.1466 18.2891C20.0214 19.4143 18.4953 20.0465 16.904 20.0465C15.3127 20.0465 13.7866 19.4143 12.6614 18.2891C11.5361 17.1639 10.904 15.6378 10.904 14.0465C10.904 12.4552 11.5361 10.9291 12.6614 9.80384C13.7866 8.67862 15.3127 8.04648 16.904 8.04648ZM4.90399 40.0465C3.84313 40.0465 2.82571 39.6251 2.07556 38.8749C1.32542 38.1248 0.903992 37.1073 0.903992 36.0465C0.903992 35.2865 1.10399 34.5865 1.48399 33.9865L5.12399 27.6665C8.28399 30.3865 12.404 32.0465 16.904 32.0465C21.404 32.0465 25.524 30.3865 28.684 27.6665L32.324 33.9865C32.704 34.5865 32.904 35.2865 32.904 36.0465C32.904 37.1073 32.4826 38.1248 31.7324 38.8749C30.9823 39.6251 29.9649 40.0465 28.904 40.0465H4.90399Z" fill="#B2B2B2"/>
</svg>
