<svg width="28" height="35" viewBox="0 0 28 35" fill="none" xmlns="http://www.w3.org/2000/svg">
<path d="M28 15.5556C28 24.1889 22.0267 32.2622 14 34.2222C5.97333 32.2622 0 24.1889 0 15.5556V6.22222L14 0L28 6.22222V15.5556ZM14 31.1111C19.8333 29.5556 24.8889 22.6178 24.8889 15.8978V8.24444L14 3.39111L3.11111 8.24444V15.8978C3.11111 22.6178 8.16667 29.5556 14 31.1111ZM18.3556 15.5556V13.2222C18.3556 11.0444 16.1778 9.33333 14 9.33333C11.8222 9.33333 9.64444 11.0444 9.64444 13.2222V15.5556C8.71111 15.5556 7.77778 16.4889 7.77778 17.4222V22.8667C7.77778 23.9556 8.71111 24.8889 9.64444 24.8889H18.2C19.2889 24.8889 20.2222 23.9556 20.2222 23.0222V17.5778C20.2222 16.4889 19.2889 15.5556 18.3556 15.5556ZM16.3333 15.5556H11.6667V13.2222C11.6667 11.9778 12.7556 11.2 14 11.2C15.2444 11.2 16.3333 11.9778 16.3333 13.2222V15.5556Z" fill="white"/>
</svg>
