<svg width="38" height="23" viewBox="0 0 38 23" fill="none" xmlns="http://www.w3.org/2000/svg">
<path d="M19 0C20.4697 0 21.8793 0.584912 22.9186 1.62606C23.9578 2.66721 24.5417 4.07932 24.5417 5.55172C24.5417 7.02413 23.9578 8.43624 22.9186 9.47739C21.8793 10.5185 20.4697 11.1034 19 11.1034C17.5303 11.1034 16.1207 10.5185 15.0815 9.47739C14.0422 8.43624 13.4583 7.02413 13.4583 5.55172C13.4583 4.07932 14.0422 2.66721 15.0815 1.62606C16.1207 0.584912 17.5303 0 19 0ZM7.91667 3.96552C8.80333 3.96552 9.62667 4.20345 10.3392 4.63172C10.1017 6.9 10.7667 9.15241 12.1283 10.9131C11.3367 12.4359 9.75333 13.4828 7.91667 13.4828C6.65689 13.4828 5.44871 12.9814 4.55791 12.089C3.66711 11.1966 3.16667 9.9862 3.16667 8.72414C3.16667 7.46207 3.66711 6.2517 4.55791 5.35928C5.44871 4.46687 6.65689 3.96552 7.91667 3.96552ZM30.0833 3.96552C31.3431 3.96552 32.5513 4.46687 33.4421 5.35928C34.3329 6.2517 34.8333 7.46207 34.8333 8.72414C34.8333 9.9862 34.3329 11.1966 33.4421 12.089C32.5513 12.9814 31.3431 13.4828 30.0833 13.4828C28.2467 13.4828 26.6633 12.4359 25.8717 10.9131C27.2333 9.15241 27.8983 6.9 27.6608 4.63172C28.3733 4.20345 29.1967 3.96552 30.0833 3.96552ZM8.70833 20.2241C8.70833 16.9407 13.3158 14.2759 19 14.2759C24.6842 14.2759 29.2917 16.9407 29.2917 20.2241V23H8.70833V20.2241ZM0 23V20.6207C0 18.4159 2.9925 16.56 7.04583 16.0207C6.11167 17.0993 5.54167 18.5903 5.54167 20.2241V23H0ZM38 23H32.4583V20.2241C32.4583 18.5903 31.8883 17.0993 30.9542 16.0207C35.0075 16.56 38 18.4159 38 20.6207V23Z" fill="white"/>
</svg>
