<svg width="24" height="27" viewBox="0 0 24 27" fill="none" xmlns="http://www.w3.org/2000/svg">
<path d="M21.6 12.132V4.8C21.6 3.48 20.532 2.4 19.2 2.4H14.184C13.68 1.008 12.36 0 10.8 0C9.24 0 7.92 1.008 7.416 2.4H2.4C1.08 2.4 0 3.48 0 4.8V21.6C0 22.932 1.08 24 2.4 24H9.732C11.244 25.488 13.308 26.4 15.6 26.4C20.244 26.4 24 22.644 24 18C24 15.708 23.088 13.644 21.6 12.132ZM10.8 2.4C11.46 2.4 12 2.94 12 3.6C12 4.26 11.46 4.8 10.8 4.8C10.14 4.8 9.6 4.26 9.6 3.6C9.6 2.94 10.14 2.4 10.8 2.4ZM3.6 7.2H18V9.6H3.6V7.2ZM7.296 19.2H3.6V16.8H7.296C7.236 17.196 7.2 17.592 7.2 18C7.2 18.408 7.236 18.804 7.296 19.2ZM3.6 14.4V12H9.732C9 12.684 8.448 13.5 8.016 14.4H3.6ZM15.6 24C12.288 24 9.6 21.312 9.6 18C9.6 14.688 12.288 12 15.6 12C18.912 12 21.6 14.688 21.6 18C21.6 21.312 18.912 24 15.6 24ZM16.2 18.3L19.632 20.328L18.732 21.792L14.4 19.2V13.2H16.2V18.3Z" fill="white"/>
</svg>
