<svg width="45" height="28" viewBox="0 0 45 28" fill="none" xmlns="http://www.w3.org/2000/svg">
<path d="M22.3977 0.654968C24.1081 0.654968 25.7485 1.33566 26.9579 2.54729C28.1674 3.75892 28.8468 5.40224 28.8468 7.11575C28.8468 8.82925 28.1674 10.4726 26.9579 11.6842C25.7485 12.8958 24.1081 13.5765 22.3977 13.5765C20.6873 13.5765 19.047 12.8958 17.8375 11.6842C16.6281 10.4726 15.9487 8.82925 15.9487 7.11575C15.9487 5.40224 16.6281 3.75892 17.8375 2.54729C19.047 1.33566 20.6873 0.654968 22.3977 0.654968ZM9.49958 5.26981C10.5314 5.26981 11.4896 5.5467 12.3188 6.0451C12.0424 8.68479 12.8163 11.306 14.4009 13.355C13.4796 15.1271 11.637 16.3454 9.49958 16.3454C8.03353 16.3454 6.62751 15.762 5.59085 14.7234C4.5542 13.6849 3.97181 12.2763 3.97181 10.8076C3.97181 9.3389 4.5542 7.93034 5.59085 6.8918C6.62751 5.85326 8.03353 5.26981 9.49958 5.26981ZM35.2959 5.26981C36.7619 5.26981 38.168 5.85326 39.2046 6.8918C40.2413 7.93034 40.8237 9.3389 40.8237 10.8076C40.8237 12.2763 40.2413 13.6849 39.2046 14.7234C38.168 15.762 36.7619 16.3454 35.2959 16.3454C33.1585 16.3454 31.3159 15.1271 30.3946 13.355C31.9792 11.306 32.7531 8.68479 32.4767 6.0451C33.3059 5.5467 34.264 5.26981 35.2959 5.26981ZM10.4209 24.1907C10.4209 20.3696 15.7828 17.2684 22.3977 17.2684C29.0126 17.2684 34.3746 20.3696 34.3746 24.1907V27.4211H10.4209V24.1907ZM0.286621 27.4211V24.6521C0.286621 22.0863 3.76912 19.9266 8.48616 19.2989C7.39903 20.5542 6.7357 22.2893 6.7357 24.1907V27.4211H0.286621ZM44.5088 27.4211H38.0598V24.1907C38.0598 22.2893 37.3964 20.5542 36.3093 19.2989C41.0263 19.9266 44.5088 22.0863 44.5088 24.6521V27.4211Z" fill="#1F86FF"/>
</svg>
